<svg viewBox="0 0 171 32" fill="none" xmlns="http://www.w3.org/2000/svg">
<path d="M5.79223 3.728H10.9148L22.2338 23.8661C22.2869 24.0085 22.381 24.1316 22.5065 24.2184C22.6319 24.3053 22.7815 24.3511 22.9335 24.3511C23.0855 24.3511 23.2351 24.3053 23.3606 24.2184C23.4861 24.1316 23.5802 24.0085 23.6333 23.8661L32.8192 7.53799H28.8548L22.9359 18.0872L13.5497 1.21375C13.3302 0.859056 13.0285 0.56468 12.6714 0.352344C12.3143 0.140008 11.909 0.0193643 11.4939 6.10352e-05H0.867481C0.105002 6.10352e-05 -0.215916 0.545381 0.153259 1.20893L13.4267 25.2077C15.8661 29.563 19.2514 31.9904 22.9384 32.0001C26.618 32.0001 30.1095 29.5775 32.5466 25.2077L45.9286 1.20893C46.276 0.545381 45.9841 6.10352e-05 45.2216 6.10352e-05H25.3657C24.9507 0.0217772 24.5478 0.142421 24.1907 0.352344C23.8335 0.562267 23.5319 0.856646 23.3124 1.20893L20.9501 5.44358L22.9263 8.95919L25.8725 3.74972H40.0941L29.031 23.4053C27.2937 26.4866 25.1655 28.1949 22.9384 28.2214C20.7112 28.248 18.5831 26.4842 16.8409 23.4053L5.79223 3.728Z" fill="#FF48A8"/>
<path d="M56.6226 3.728L62.1747 22.0613H62.2832L67.8691 3.728H72.9821L64.853 28.2214H59.3709L51.2756 3.728H56.6226Z" fill="white"/>
<path d="M73.1679 19.3009C73.1679 13.896 76.3312 8.9592 82.3635 8.9592C86.0818 8.9592 88.473 10.8364 88.473 14.3689C88.473 19.8873 82.3635 20.8404 78.3894 20.9875C78.6114 22.9734 79.8275 24.853 82.5879 24.853C84.248 24.8096 85.855 24.257 87.1893 23.2702L88.6588 26.6555C86.6898 28.0405 84.33 28.7619 81.9243 28.7185C75.7063 28.7233 73.1679 24.8217 73.1679 19.3009ZM83.9488 14.4848C83.9705 14.2338 83.9343 13.9805 83.8474 13.7416C83.7606 13.5027 83.623 13.2879 83.4445 13.1094C83.2659 12.9308 83.0512 12.7933 82.8123 12.7064C82.5758 12.6196 82.3225 12.5858 82.0691 12.6051C79.6031 12.6051 78.317 14.8853 78.2085 17.5371C80.1967 17.5009 83.9488 16.8735 83.9488 14.4848Z" fill="white"/>
<path d="M92.3384 22.1747V2.57946H97.49V9.51898H102.309V13.5244H97.49V22.0275C97.49 24.204 98.4817 24.8192 99.8426 24.8192C100.644 24.7999 101.421 24.5587 102.091 24.1219L103.305 27.4324C101.804 28.289 100.101 28.7354 98.3731 28.7233C92.8186 28.7233 92.3384 25.5238 92.3384 22.1747Z" fill="white"/>
<path d="M104.772 26.7689L106.167 23.1278C107.45 23.9385 109.733 24.9664 111.61 24.9664C112.863 24.9664 113.891 24.3415 113.891 23.0168C113.891 21.5787 112.638 21.1396 111.092 20.6594C108.37 19.8535 105.315 18.9342 105.315 15.0687C105.315 11.2032 108.582 8.9616 112.305 8.9616C114.892 8.93506 117.394 9.89781 119.295 11.6496L116.904 14.6271C115.396 13.4134 113.888 12.6775 112.549 12.6775C111.335 12.6775 110.339 13.3024 110.339 14.5547C110.339 15.9156 111.591 16.4271 113.285 16.9821C115.968 17.8628 118.991 18.8545 118.991 22.6428C118.991 26.6169 116.084 28.7161 111.815 28.7161C108.524 28.7233 105.802 27.541 104.772 26.7689Z" fill="white"/>
<path d="M122.768 22.1747V2.57946H127.946V9.51898H132.764V13.5244H127.946V22.0275C127.946 24.204 128.937 24.8192 130.298 24.8192C131.097 24.7999 131.876 24.5587 132.547 24.1219L133.761 27.4324C132.26 28.289 130.557 28.7354 128.829 28.7233C123.245 28.7233 122.768 25.5238 122.768 22.1747Z" fill="white"/>
<path d="M135.351 19.3009C135.351 13.896 138.514 8.9592 144.551 8.9592C148.265 8.9592 150.654 10.8364 150.654 14.3689C150.654 19.8873 144.551 20.8404 140.575 20.9875C140.792 22.9734 142.006 24.853 144.766 24.853C146.426 24.8096 148.033 24.257 149.368 23.2702L150.837 26.6555C148.868 28.0405 146.508 28.7619 144.103 28.7185C137.887 28.7233 135.351 24.8217 135.351 19.3009ZM146.129 14.4848C146.149 14.2362 146.115 13.9853 146.031 13.7488C145.946 13.5148 145.811 13.3 145.635 13.1215C145.459 12.9429 145.246 12.8054 145.012 12.7161C144.778 12.6268 144.527 12.5906 144.279 12.6051C141.818 12.6051 140.527 14.8853 140.418 17.5371C142.38 17.5009 146.129 16.8735 146.129 14.4848Z" fill="white"/>
<path d="M154.186 9.5214H158.385L158.826 12.1659C159.154 11.249 159.753 10.4552 160.539 9.88333C161.326 9.31147 162.269 8.99297 163.242 8.96402C164.277 8.95195 165.298 9.19324 166.219 9.66617L165.409 13.966C164.593 13.5606 163.7 13.3362 162.788 13.3073C160.986 13.3073 159.806 14.6295 159.733 16.5719V28.1659H154.582V12.7523L154.186 9.5214Z" fill="white"/>
<path d="M170.982 12.0524C170.982 10.8634 170.048 9.93408 168.863 9.93408H168.835C167.646 9.93408 166.716 10.8634 166.716 12.0524V12.0808C166.716 13.2658 167.646 14.1991 168.835 14.1991H168.863C170.048 14.1991 170.982 13.2658 170.982 12.0808V12.0524ZM170.588 12.0524V12.0808C170.588 13.0466 169.829 13.8055 168.863 13.8055H168.835C167.869 13.8055 167.11 13.0466 167.11 12.0808V12.0524C167.11 11.0866 167.869 10.3277 168.835 10.3277H168.863C169.829 10.3277 170.588 11.0866 170.588 12.0524ZM168.019 13.1724H168.429V12.3689H168.843C168.859 12.3689 168.871 12.3689 168.883 12.3649L169.346 13.1724H169.817L169.301 12.2999C169.577 12.2066 169.752 11.9631 169.752 11.675V11.6709C169.752 11.2205 169.448 10.9608 168.932 10.9608H168.019V13.1724ZM168.433 12.0321V11.3138H168.888C169.159 11.3138 169.334 11.4518 169.334 11.6709C169.334 11.8941 169.168 12.0321 168.896 12.0321H168.433Z" fill="white"/>
</svg>